<?xml version="1.0" encoding="UTF-8" standalone="no"?>
<!DOCTYPE svg PUBLIC "-//W3C//DTD SVG 1.1//EN" "http://www.w3.org/Graphics/SVG/1.1/DTD/svg11.dtd">
<svg width="100%" height="100%" viewBox="0 0 196 191" version="1.1" xmlns="http://www.w3.org/2000/svg" xmlnsXlink="http://www.w3.org/1999/xlink" xmlSpace="preserve" xmlnsSerif="http://www.serif.com/" style="fill-rule:evenodd;clip-rule:evenodd;stroke-linejoin:round;stroke-miterlimit:1.41421;">
    <g transform="matrix(1,0,0,1,-2.712,-6.51443)">
        <path d="M116.25,171.477C116.725,171.318 117.187,171.166 117.442,171.093C118.114,170.902 120.295,170.421 121.89,170.255C122.361,170.204 122.89,170.146 123.479,170.106C124.89,170.008 126.635,170.008 128.683,170.456C129.035,170.533 129.361,170.603 129.653,170.664L129.653,170.663C129.362,170.603 129.035,170.533 128.683,170.456C129.114,170.295 129.464,170.156 129.648,170.071C129.671,170.059 129.704,170.051 129.744,170.045C130.078,168.155 130.8,167.198 131.614,164.273C132.519,161.022 133.364,155.629 133.665,152.995C134.302,147.426 137.584,143.33 137.372,141.907C137.221,140.891 137.045,139.714 136.878,138.387C136.854,138.396 136.829,138.404 136.804,138.411C136.608,138.489 136.371,138.496 136.119,138.455C136.119,138.455 136.082,138.459 136.039,138.459C135.99,138.709 135.804,139.101 135.382,139.215C135.297,139.249 135.201,139.271 135.093,139.276C135.091,139.272 135.089,139.268 135.087,139.264C134.677,139.35 134.012,139.597 133.97,140.154C133.939,140.544 134.122,140.948 133.792,141.466C133.024,142.674 131.265,141.063 129.852,140.802C128.44,140.541 126.182,141.492 124.953,141.797C123.62,142.127 121.986,142.13 120.314,141.779C120.355,141.911 114.21,140.223 112.357,137.271C111.267,135.536 111.025,133.12 111.105,131.011C111.059,129.753 111.2,128.614 111.5,127.592L110.581,126.341C109.809,125.612 108.932,124.67 108.878,123.993C108.669,121.338 109.778,119.245 112.878,117.776C114.091,117.203 116.373,116.255 119.03,118.545L119.819,119.109C119.851,119.096 119.87,119.09 119.873,119.089C119.898,119.079 119.923,119.069 119.946,119.053C123.24,118.552 131.26,119.355 133.292,122.448C133.245,122.517 133.199,122.588 133.155,122.66C133.941,122.521 134.792,122.21 135.729,121.647C135.697,121.587 135.666,121.528 135.635,121.469C130.474,111.515 134.673,89.871 131.605,83.951C131.379,83.516 130.992,83.163 130.476,82.86C127.445,81.081 120.012,81.065 115.304,76.562C111.371,77.826 87.403,84.895 81.432,88.357C79.059,89.735 77.044,90.44 75.666,91.482C74.288,92.523 67.397,97.729 63.457,99.306C52.068,103.867 41.161,102.213 35.273,104.621C34.279,105.027 33.195,105.463 32.095,105.856C32.096,105.861 32.096,105.866 32.095,105.871C32.094,105.887 32.086,105.901 32.074,105.909L32.055,105.923C32.363,107.02 32.531,108.019 32.479,108.557C32.328,110.142 31.013,111.885 27.192,111.321C22.538,110.635 15.551,112.041 12.692,111.751C10.355,111.512 8.256,110.703 8.334,109.875C8.415,109.046 11.412,108.855 12.646,108.668C13.88,108.482 19.55,105.333 21.152,104.5C22.077,104.016 23.774,102.742 25.542,101.865C26.207,101.396 26.956,101.019 27.701,100.805C46.697,95.352 65.817,86.45 66.858,85.382C67.898,84.312 70.147,81.778 71.724,80.821C73.298,79.866 77.482,78.793 78.867,77.471C81.822,74.657 90.841,66.214 95.201,63.653C99.561,61.091 105.377,57.686 108.47,56.447C110.067,55.807 112.284,55.082 114.712,54.533L114.712,54.532C115.732,51.56 117.085,48.535 118.498,45.707C119.571,43.557 123.967,33.753 125.166,31.664C125.165,31.663 125.165,31.663 125.164,31.662C125.16,31.66 125.157,31.657 125.153,31.654C119.353,37.523 112.59,39.407 110.244,41.246C107.624,43.294 104.209,46.405 101.09,48.741C101.092,48.746 101.094,48.751 101.094,48.757C101.096,48.77 101.092,48.783 101.085,48.793L101.07,48.812C101.826,49.948 102.399,51.079 102.516,51.696C102.808,53.261 102.03,55.301 98.202,55.82C93.541,56.455 87.22,59.744 84.391,60.258C82.081,60.679 79.839,60.487 79.686,59.666C79.532,58.847 82.358,57.832 83.491,57.311C84.628,56.789 89.199,52.19 90.504,50.943C91.103,50.372 92.03,49.19 93.113,48.059C93.126,48.027 93.144,47.991 93.161,47.956C94.108,46.059 100.339,42.734 102.642,39.823C104.944,36.906 118.147,23.35 121.666,18.673C124.277,15.204 131.942,6.439 135.184,6.515C138.03,6.58 141.355,7.439 142.168,10.218C145.581,21.846 140.491,44.251 134.754,58.154C134.829,58.21 134.905,58.266 134.98,58.323L135.024,58.356L135.051,58.376C138.133,60.701 141.056,63.709 143.484,67.094L143.519,67.142L143.57,67.213L143.6,67.256C144.673,68.767 145.647,70.351 146.493,71.982C147.174,73.294 148.845,77.008 150.237,80.074C151.128,82.037 151.904,83.734 152.231,84.363C152.347,84.587 152.456,84.826 152.56,85.079C153.301,86.877 153.754,89.342 154.105,91.416C154.443,93.421 155.361,98.375 155.244,101.865C155.171,104.046 157.702,106.221 156.937,108.668C155.317,113.857 150.069,120.844 149.681,121.39C149.511,121.629 149.354,121.867 149.206,122.105C149.405,124.614 149.596,127.103 149.73,128.757C149.667,128.804 149.601,128.85 149.533,128.895C149.58,129.374 149.612,129.779 149.624,130.093C149.728,132.817 149.816,141.001 149.798,142.517C149.781,144.034 149.618,145.708 149.25,147.996C148.883,150.284 147.745,155.851 146.833,160.065C146.084,163.529 144.76,168.123 143.048,171.477L198.207,171.477L198.207,197.054L2.712,197.054L2.712,171.477L116.25,171.477ZM141.664,173.764C141.632,173.807 141.601,173.849 141.569,173.891L141.569,194.466L145.656,194.466L145.656,183.174L157.919,194.857L157.919,174.053L153.819,174.053L153.819,185.344L141.664,173.764ZM42.469,174.053L42.469,185.344L30.219,173.674L30.219,194.466L34.306,194.466L34.306,183.174L46.569,194.857L46.569,174.053L42.469,174.053ZM177.31,191.577L174.396,188.662C173.185,189.873 171.721,190.479 170.006,190.479C168.298,190.479 166.843,189.878 165.64,188.675C164.429,187.464 163.824,186.004 163.824,184.297C163.824,182.607 164.429,181.147 165.64,179.919C166.835,178.708 168.29,178.103 170.006,178.103C171.696,178.103 173.155,178.708 174.383,179.919L177.298,177.005C175.617,175.384 173.121,173.99 169.98,173.99L169.993,173.939C167.167,173.939 164.74,174.953 162.713,176.98C160.695,179.015 159.686,181.45 159.686,184.284C159.686,187.127 160.695,189.558 162.713,191.577C164.724,193.57 167.15,194.571 169.993,194.579C173.165,194.579 175.641,193.231 177.31,191.577ZM191.339,174.053L179.077,174.053L179.077,194.466L191.339,194.466L191.339,190.403L183.164,190.403L183.164,186.303L189.296,186.303L189.296,182.228L183.164,182.228L183.164,178.128L191.339,178.128L191.339,174.053ZM21.842,174.053L9.579,174.053L9.579,194.466L13.666,194.466L13.666,186.303L19.798,186.303L19.798,182.228L13.666,182.228L13.666,178.128L21.842,178.128L21.842,174.053ZM27.695,174.103L23.608,174.103L23.608,194.44L27.695,194.44L27.695,174.103ZM112.06,174.103L107.972,174.103L107.972,194.44L120.235,194.44L120.235,190.378L112.06,190.378L112.06,174.103ZM79.674,174.103L73.997,174.103L73.997,194.44L81.554,194.44C83.312,194.44 84.809,193.81 86.045,192.548C87.281,191.303 87.9,189.798 87.9,188.031C87.9,186.274 87.281,184.768 86.045,183.515C85.662,183.148 84.977,182.729 84.481,182.48C84.857,181.811 85.326,180.642 85.326,179.667C85.326,178.178 84.788,176.887 83.711,175.794C82.593,174.667 81.247,174.103 79.674,174.103ZM54.505,174.116L49.092,174.116L49.092,194.44L54.505,194.44C57.457,194.44 59.934,193.448 61.936,191.463C63.752,189.655 64.661,187.264 64.661,184.291C64.661,181.318 63.752,178.918 61.936,177.093C60.2,175.372 57.699,174.103 54.505,174.103L54.505,174.116ZM97.565,175.128C97.076,175.131 96.637,175.137 96.275,175.131L87.647,194.44L92.063,194.44L93.438,191.35L100.402,191.35L101.777,194.44L106.206,194.44L97.565,175.128ZM130.035,174.765L121.244,194.44L125.66,194.44L127.035,191.35L133.999,191.35L135.374,194.44L139.803,194.44L131.106,175.003C130.662,174.918 130.286,174.836 130.035,174.765ZM81.554,190.454C82.88,190.454 83.913,189.359 83.913,188.031C83.913,186.68 82.812,185.617 81.554,185.533C80.343,185.467 79.295,185.521 78.072,185.521L78.072,190.454L81.554,190.454ZM54.53,190.365L53.167,190.365L53.167,178.153L54.492,178.153C58.155,178.153 60.586,180.62 60.586,184.259C60.586,187.931 58.196,190.365 54.53,190.365ZM98.787,187.741L96.933,183.439L95.053,187.741L98.787,187.741ZM132.384,187.741L130.53,183.439L128.65,187.741L132.384,187.741ZM79.674,178.077C80.625,178.077 81.39,178.888 81.39,179.831C81.39,180.865 80.566,181.589 79.598,181.698C78.942,181.749 78.433,181.782 78.072,181.799L78.072,178.077L79.674,178.077ZM138.539,171.477C138.703,169.693 139.092,167.752 139.38,165.354C139.549,163.946 139.65,162.165 139.703,160.377C138.473,163.46 135.488,168.163 133.818,170.692C135.026,170.949 136.309,171.238 137.394,171.477L138.539,171.477Z" style="fill:rgb(255,255,255);"/>
    </g>
</svg>
