<?xml version="1.0" encoding="UTF-8"?>
<svg version="1.1" viewBox="0 0 1200 1200" xmlns="http://www.w3.org/2000/svg">
 <path fill="#ffffff" d="m950.07 975.65c-16.715 8.832-58.094 35.93-65.734 25.906-20.219-26.473-60.012-75.84-70.824-92.617-13.598-21.047-16.355-39.098-11.844-50.281 7.7773-19.332 14.207-32.773 18.77-41.508l-91.488-101.81c-269.03 50.316-623.04 29.566-725.53-66.203-41.258-38.555 301.96-136.56 503.7-180.57l-66.348-73.801c-16.859-1.0547-47.844-3.2539-65.352-6.1328-24.816-4.0664-40.848-27.938-50.965-43.535-13.055-20.137-38.578-63.996-46.824-74.867-8.2812-10.871 27.527-38.461 45.445-46.633 17.855-8.1719 64.176-34.453 73.008-25.5 16.777 17.039 47.734 54.059 72.613 91.559 12.086 18.156 15.625 37.609 10.078 51.336-5.543 13.789-10.379 24.434-14.352 32.664l385.43 428.84c16.598 1.6797 44.293 6.7188 55.152 8.5195 24.816 4.0664 39.961 28.559 50.988 43.57 11.027 14.941 41.746 60.66 49.992 71.531 8.2656 10.879-38.523 40.289-55.914 49.531zm-522.23-418.6c4.2461 28.188 84.973 39.527 182.66 26.531l-81.59-90.73c-62.492 17.977-104.28 42.863-101.07 64.199zm353.63 147.32-117.02-130.23c81.348-17.832 139.41-47.988 135.65-73.066-4.4141-29.27-91.309-40.477-194.12-25.031-8.7852 1.3203-17.305 2.8555-25.715 4.4883l-20.484-22.812c13.715-2.6641 26.258-4.8945 37.234-6.6719 160.23-25.465 622.03-56.293 602.36-16.969-31.703 63.488-161.58 209.18-417.9 270.3z"/>
</svg>
