<?xml version="1.0" encoding="utf-8"?>
<!-- Generator: Adobe Illustrator 22.1.0, SVG Export Plug-In . SVG Version: 6.00 Build 0)  -->
<svg version="1.1" id="Layer_1" xmlns="http://www.w3.org/2000/svg" xmlns:xlink="http://www.w3.org/1999/xlink" x="0px" y="0px"
	 viewBox="0 0 98.4 90" style="enable-background:new 0 0 98.4 90;" xml:space="preserve">
<style type="text/css">
	.st0{filter:url(#filter-3);}
	.st1{filter:url(#Adobe_OpacityMaskFilter);}
	.st2{fill:#FFFFFF;}
	.st3{mask:url(#mask-2_2_);}
	.st4{filter:url(#Adobe_OpacityMaskFilter_1_);}
	.st5{mask:url(#mask-5_2_);fill:#FEFEFE;}
	.st6{filter:url(#Adobe_OpacityMaskFilter_2_);}
	.st7{mask:url(#mask-2_4_);}
	.st8{filter:url(#Adobe_OpacityMaskFilter_3_);}
	.st9{mask:url(#mask-7_2_);fill:#007AC3;}
	.st10{filter:url(#Adobe_OpacityMaskFilter_4_);}
	.st11{mask:url(#mask-9_2_);fill:#FFDC00;}
	.st12{clip-path:url(#SVGID_3_);}
	.st13{filter:url(#Adobe_OpacityMaskFilter_5_);}
	.st14{clip-path:url(#SVGID_4_);fill:#FFFFFF;}
	.st15{clip-path:url(#SVGID_4_);mask:url(#mask-11_2_);fill:#00ACE9;}
	.st16{filter:url(#Adobe_OpacityMaskFilter_6_);}
	.st17{mask:url(#mask-13_2_);fill:#007AC3;}
	.st18{clip-path:url(#SVGID_7_);}
	.st19{filter:url(#Adobe_OpacityMaskFilter_7_);}
	.st20{clip-path:url(#SVGID_8_);fill:#FFFFFF;}
	.st21{clip-path:url(#SVGID_8_);mask:url(#mask-15_2_);fill:#00ACE9;}
	.st22{filter:url(#Adobe_OpacityMaskFilter_8_);}
	.st23{mask:url(#mask-17_2_);fill:#A1D9F7;}
	.st24{filter:url(#Adobe_OpacityMaskFilter_9_);}
	.st25{mask:url(#mask-19_2_);fill:#007AC3;}
	.st26{filter:url(#Adobe_OpacityMaskFilter_10_);}
	.st27{mask:url(#mask-21_2_);fill:#A1D9F7;}
	.st28{filter:url(#Adobe_OpacityMaskFilter_11_);}
	.st29{mask:url(#mask-23_2_);fill:#CCCB00;}
	.st30{clip-path:url(#SVGID_11_);}
	.st31{filter:url(#Adobe_OpacityMaskFilter_12_);}
	.st32{clip-path:url(#SVGID_12_);fill:#FFFFFF;}
	.st33{clip-path:url(#SVGID_12_);mask:url(#mask-25_2_);fill:#CCCB00;}
	.st34{filter:url(#Adobe_OpacityMaskFilter_13_);}
	.st35{mask:url(#mask-27_2_);fill:#8BADDB;}
	.st36{filter:url(#Adobe_OpacityMaskFilter_14_);}
	.st37{mask:url(#mask-29_2_);fill:#8BADDB;}
	.st38{filter:url(#Adobe_OpacityMaskFilter_15_);}
	.st39{mask:url(#mask-31_2_);fill:#8BADDB;}
	.st40{filter:url(#Adobe_OpacityMaskFilter_16_);}
	.st41{mask:url(#mask-33_2_);fill:#8BADDB;}
	.st42{filter:url(#Adobe_OpacityMaskFilter_17_);}
	.st43{mask:url(#mask-35_2_);fill:#8BADDB;}
	.st44{filter:url(#Adobe_OpacityMaskFilter_18_);}
	.st45{mask:url(#mask-2_6_);}
	.st46{filter:url(#Adobe_OpacityMaskFilter_19_);}
	.st47{mask:url(#mask-37_2_);fill:#8BADDB;}
	.st48{filter:url(#Adobe_OpacityMaskFilter_20_);}
	.st49{mask:url(#mask-39_2_);fill:#007AC3;}
	.st50{filter:url(#Adobe_OpacityMaskFilter_21_);}
	.st51{mask:url(#mask-2_8_);}
	.st52{filter:url(#Adobe_OpacityMaskFilter_22_);}
	.st53{mask:url(#mask-41_2_);fill:#007AC3;}
	.st54{fill:#007AC3;}
</style>
<filter  filterUnits="objectBoundingBox" height="118.8%" id="filter-3" width="117.1%" x="-8.5%" y="-9.4%">
	<feOffset  in="SourceAlpha" result="shadowOffsetOuter1"></feOffset>
	<feGaussianBlur  in="shadowOffsetOuter1" result="shadowBlurOuter1" stdDeviation="2.5"></feGaussianBlur>
	<feColorMatrix  in="shadowBlurOuter1" values="0 0 0 0 0 0 0 0 0 0 0 0 0 0 0 0 0 0 0.218948143 0"></feColorMatrix>
</filter>
<g id="_x2D_">
	<g id="MENU-1280" transform="translate(-24 -67)">
		<g id="Group" transform="translate(29 72)">
			<g id="Page-1">
				<g id="Clip-61" class="st0">
					<path id="path-1_2_" d="M10.6,0C10.6,0,0,0,0,10.7V80h77.1c0,0,10.6,0,10.6-10.7V0H10.6z"/>
				</g>
				<defs>
					<filter id="Adobe_OpacityMaskFilter" filterUnits="userSpaceOnUse" x="0" y="0" width="87.7" height="80">
						<feColorMatrix  type="matrix" values="1 0 0 0 0  0 1 0 0 0  0 0 1 0 0  0 0 0 1 0"/>
					</filter>
				</defs>
				<mask maskUnits="userSpaceOnUse" x="0" y="0" width="87.7" height="80" id="mask-2_2_">
					<g class="st1">
						<path id="path-1_1_" class="st2" d="M10.6,0C10.6,0,0,0,0,10.7V80h77.1c0,0,10.6,0,10.6-10.7V0H10.6z"/>
					</g>
				</mask>
				<g id="Group-3" class="st3">
					<defs>
						<filter id="Adobe_OpacityMaskFilter_1_" filterUnits="userSpaceOnUse" x="0" y="0" width="87.7" height="80">
							<feColorMatrix  type="matrix" values="1 0 0 0 0  0 1 0 0 0  0 0 1 0 0  0 0 0 1 0"/>
						</filter>
					</defs>
					<mask maskUnits="userSpaceOnUse" x="0" y="0" width="87.7" height="80" id="mask-5_2_">
						<g class="st4">
							<path id="path-4_2_" class="st2" d="M0,0h87.7v80H0V0z"/>
						</g>
					</mask>
					<path id="Fill-1" class="st5" d="M10.6,0C10.6,0,0,0,0,10.7V80h77.1c0,0,10.6,0,10.6-10.7V0H10.6"/>
				</g>
				<defs>
					<filter id="Adobe_OpacityMaskFilter_2_" filterUnits="userSpaceOnUse" x="-2" y="-2" width="83" height="81.4">
						<feColorMatrix  type="matrix" values="1 0 0 0 0  0 1 0 0 0  0 0 1 0 0  0 0 0 1 0"/>
					</filter>
				</defs>
				<mask maskUnits="userSpaceOnUse" x="-2" y="-2" width="83" height="81.4" id="mask-2_4_">
					<g class="st6">
						<path id="path-1_4_" class="st2" d="M10.6,0C10.6,0,0,0,0,10.7V80h77.1c0,0,10.6,0,10.6-10.7V0H10.6z"/>
					</g>
				</mask>
				<g id="Group-49" class="st7">
					<g id="Group-6">
						<defs>
							<filter id="Adobe_OpacityMaskFilter_3_" filterUnits="userSpaceOnUse" x="27.6" y="31.2" width="47.9" height="29.2">
								<feColorMatrix  type="matrix" values="1 0 0 0 0  0 1 0 0 0  0 0 1 0 0  0 0 0 1 0"/>
							</filter>
						</defs>
						<mask maskUnits="userSpaceOnUse" x="27.6" y="31.2" width="47.9" height="29.2" id="mask-7_2_">
							<g class="st8">
								<path id="path-6_2_" class="st2" d="M10.6,0C10.6,0,0,0,0,10.7V80h77.1c0,0,10.6,0,10.6-10.7V0H77.1"/>
							</g>
						</mask>
						<path id="Fill-4" class="st9" d="M75.4,31.2c-6,5.1-10.3,10.3-10.3,10.4l-6.4-4.2c0.2-0.2,2.3-2.8,5.6-6.1
							C57,36.3,50.6,45,50.5,45.1l-4.9-3.6C40.2,46.2,36.1,51.8,36,52l-4.6-3.4c-1.5,1.5-2.7,2.9-3.8,4.1v7.7h0.6
							c10.7-7,26.2-14.7,47.3-19.6"/>
					</g>
					<g id="Group-9">
						<defs>
							<filter id="Adobe_OpacityMaskFilter_4_" filterUnits="userSpaceOnUse" x="34" y="10.9" width="47" height="27.1">
								<feColorMatrix  type="matrix" values="1 0 0 0 0  0 1 0 0 0  0 0 1 0 0  0 0 0 1 0"/>
							</filter>
						</defs>
						<mask maskUnits="userSpaceOnUse" x="34" y="10.9" width="47" height="27.1" id="mask-9_2_">
							<g class="st10">
								<path id="path-8_2_" class="st2" d="M10.6,0C10.6,0,0,0,0,10.7V80h77.1c0,0,10.6,0,10.6-10.7V0H77.1"/>
							</g>
						</mask>
						<path id="Fill-7" class="st11" d="M75.4,14.3c-4-2.2-8.6-3.4-13.4-3.4c-15.1,0-27.4,12-28,27.1c1.5-1.1,3-2.1,4.6-2.9l1.1,2.2
							c1-11.5,10.6-20.6,22.3-20.6c4.9,0,9.5,1.6,13.4,4.5c0.2,0.1,0.3,0.3,0.5,0.4c1.7-1.1,3.4-2.2,5.1-3.1
							C79.4,16.7,77.5,15.4,75.4,14.3"/>
					</g>
					<g id="Group-12">
						<g>
							<defs>
								<polygon id="SVGID_1_" points="1,1 2,1 1,2 								"/>
							</defs>
							<defs>
								<polygon id="SVGID_2_" points="-1,-1 -2,-1 -1,-2 								"/>
							</defs>
							<clipPath id="SVGID_3_">
								<use xlink:href="#SVGID_1_"  style="overflow:visible;"/>
							</clipPath>
							<clipPath id="SVGID_4_" class="st12">
								<use xlink:href="#SVGID_2_"  style="overflow:visible;"/>
							</clipPath>
							<defs>
								<filter id="Adobe_OpacityMaskFilter_5_" filterUnits="userSpaceOnUse" x="24.9" y="56" width="0" height="0">
									<feColorMatrix  type="matrix" values="1 0 0 0 0  0 1 0 0 0  0 0 1 0 0  0 0 0 1 0"/>
								</filter>
							</defs>
							<mask maskUnits="userSpaceOnUse" x="24.9" y="56" width="0" height="0" id="mask-11_2_">
								<g class="st13">
									<path id="path-10_2_" class="st14" d="M10.6,0C10.6,0,0,0,0,10.7V80h77.1c0,0,10.6,0,10.6-10.7V0H77.1"/>
								</g>
							</mask>
							<path id="Fill-10" class="st15" d="M24.9,56"/>
						</g>
					</g>
					<g id="Group-15">
						<defs>
							<filter id="Adobe_OpacityMaskFilter_6_" filterUnits="userSpaceOnUse" x="39.7" y="16.6" width="35.7" height="21.9">
								<feColorMatrix  type="matrix" values="1 0 0 0 0  0 1 0 0 0  0 0 1 0 0  0 0 0 1 0"/>
							</filter>
						</defs>
						<mask maskUnits="userSpaceOnUse" x="39.7" y="16.6" width="35.7" height="21.9" id="mask-13_2_">
							<g class="st16">
								<path id="path-12_2_" class="st2" d="M10.6,0C10.6,0,0,0,0,10.7V80h77.1c0,0,10.6,0,10.6-10.7V0H77.1"/>
							</g>
						</mask>
						<path id="Fill-13" class="st17" d="M62.1,16.6c-11.7,0-21.3,9.1-22.3,20.6c0,0.4-0.1,0.8-0.1,1.3l0.5-0.5
							c2.8-2.6,6.1-5.2,9.5-7l1.7,3.4c3.4-3.6,8-7.8,12.8-10.3l2.5,4.8c2.5-2.3,5.5-4.8,8.7-7.1V21C71.6,18.2,67,16.6,62.1,16.6"/>
					</g>
					<g id="Group-18">
						<g>
							<defs>
								<polygon id="SVGID_5_" points="1,1 2,1 1,2 								"/>
							</defs>
							<defs>
								<polygon id="SVGID_6_" points="-1,-1 -2,-1 -1,-2 								"/>
							</defs>
							<clipPath id="SVGID_7_">
								<use xlink:href="#SVGID_5_"  style="overflow:visible;"/>
							</clipPath>
							<clipPath id="SVGID_8_" class="st18">
								<use xlink:href="#SVGID_6_"  style="overflow:visible;"/>
							</clipPath>
							<defs>
								<filter id="Adobe_OpacityMaskFilter_7_" filterUnits="userSpaceOnUse" x="36" y="52" width="0" height="0">
									<feColorMatrix  type="matrix" values="1 0 0 0 0  0 1 0 0 0  0 0 1 0 0  0 0 0 1 0"/>
								</filter>
							</defs>
							<mask maskUnits="userSpaceOnUse" x="36" y="52" width="0" height="0" id="mask-15_2_">
								<g class="st19">
									<path id="path-14_2_" class="st20" d="M10.6,0C10.6,0,0,0,0,10.7V80h77.1c0,0,10.6,0,10.6-10.7V0H77.1"/>
								</g>
							</mask>
							<path id="Fill-16" class="st21" d="M36,52"/>
						</g>
					</g>
					<g id="Group-21">
						<defs>
							<filter id="Adobe_OpacityMaskFilter_8_" filterUnits="userSpaceOnUse" x="39.1" y="38.5" width="0.7" height="0.6">
								<feColorMatrix  type="matrix" values="1 0 0 0 0  0 1 0 0 0  0 0 1 0 0  0 0 0 1 0"/>
							</filter>
						</defs>
						<mask maskUnits="userSpaceOnUse" x="39.1" y="38.5" width="0.7" height="0.6" id="mask-17_2_">
							<g class="st22">
								<path id="path-16_2_" class="st2" d="M10.6,0C10.6,0,0,0,0,10.7V80h77.1c0,0,10.6,0,10.6-10.7V0H77.1"/>
							</g>
						</mask>
						<path id="Fill-19" class="st23" d="M39.1,39.1h0.7v-0.6C39.5,38.7,39.3,38.9,39.1,39.1z"/>
					</g>
					<g id="Group-24">
						<defs>
							<filter id="Adobe_OpacityMaskFilter_9_" filterUnits="userSpaceOnUse" x="27.6" y="8.3" width="47.9" height="35.2">
								<feColorMatrix  type="matrix" values="1 0 0 0 0  0 1 0 0 0  0 0 1 0 0  0 0 0 1 0"/>
							</filter>
						</defs>
						<mask maskUnits="userSpaceOnUse" x="27.6" y="8.3" width="47.9" height="35.2" id="mask-19_2_">
							<g class="st24">
								<path id="path-18_2_" class="st2" d="M10.6,0C10.6,0,0,0,0,10.7V80h77.1c0,0,10.6,0,10.6-10.7V0H77.1"/>
							</g>
						</mask>
						<path id="Fill-22" class="st25" d="M62.1,10.9c4.7,0,9.3,1.2,13.4,3.4v-6H27.6v35.2c1.9-1.9,4.1-3.9,6.5-5.6
							C34.7,22.9,47,10.9,62.1,10.9"/>
					</g>
					<g id="Group-27">
						<defs>
							<filter id="Adobe_OpacityMaskFilter_10_" filterUnits="userSpaceOnUse" x="20" y="21.8" width="55.4" height="34.2">
								<feColorMatrix  type="matrix" values="1 0 0 0 0  0 1 0 0 0  0 0 1 0 0  0 0 0 1 0"/>
							</filter>
						</defs>
						<mask maskUnits="userSpaceOnUse" x="20" y="21.8" width="55.4" height="34.2" id="mask-21_2_">
							<g class="st26">
								<path id="path-20_2_" class="st2" d="M10.6,0C10.6,0,0,0,0,10.7V80h77.1c0,0,10.6,0,10.6-10.7V0H77.1"/>
							</g>
						</mask>
						<path id="Fill-25" class="st27" d="M66.8,28.9l-2.5-4.8c-4.8,2.5-9.4,6.7-12.8,10.3L49.8,31c-3.4,1.8-6.7,4.4-9.5,7l-0.5,0.5
							c0-0.4,0-0.8,0.1-1.3L38.7,35c-1.6,0.8-3.1,1.8-4.6,2.9c-2.4,1.7-4.6,3.7-6.5,5.6c-4.4,4.4-7.4,8.5-7.6,8.8l5,3.7
							c0.1-0.1,1.1-1.4,2.7-3.3c1-1.2,2.3-2.6,3.8-4.1L36,52c0.1-0.1,2.5-3.3,5.9-6.9c1.1-1.2,2.4-2.4,3.7-3.6l4.9,3.6
							c0.1-0.1,6.4-8.7,13.8-13.8c-3.3,3.3-5.4,5.8-5.6,6.1l6.4,4.2c0.1-0.1,4.4-5.3,10.3-10.4v-9.4C72.2,24,69.3,26.5,66.8,28.9"/>
					</g>
					<g id="Group-30">
						<defs>
							<filter id="Adobe_OpacityMaskFilter_11_" filterUnits="userSpaceOnUse" x="28.1" y="40.8" width="47.3" height="19.6">
								<feColorMatrix  type="matrix" values="1 0 0 0 0  0 1 0 0 0  0 0 1 0 0  0 0 0 1 0"/>
							</filter>
						</defs>
						<mask maskUnits="userSpaceOnUse" x="28.1" y="40.8" width="47.3" height="19.6" id="mask-23_2_">
							<g class="st28">
								<path id="path-22_2_" class="st2" d="M10.6,0C10.6,0,0,0,0,10.7V80h77.1c0,0,10.6,0,10.6-10.7V0H77.1"/>
							</g>
						</mask>
						<path id="Fill-28" class="st29" d="M75.4,60.4V40.8c-21.1,4.9-36.6,12.6-47.3,19.6H75.4z"/>
					</g>
					<g id="Group-33">
						<g>
							<defs>
								<polygon id="SVGID_9_" points="1,1 2,1 1,2 								"/>
							</defs>
							<defs>
								<polygon id="SVGID_10_" points="-1,-1 -2,-1 -1,-2 								"/>
							</defs>
							<clipPath id="SVGID_11_">
								<use xlink:href="#SVGID_9_"  style="overflow:visible;"/>
							</clipPath>
							<clipPath id="SVGID_12_" class="st30">
								<use xlink:href="#SVGID_10_"  style="overflow:visible;"/>
							</clipPath>
							<defs>
								<filter id="Adobe_OpacityMaskFilter_12_" filterUnits="userSpaceOnUse" x="17" y="79.4" width="0" height="0">
									<feColorMatrix  type="matrix" values="1 0 0 0 0  0 1 0 0 0  0 0 1 0 0  0 0 0 1 0"/>
								</filter>
							</defs>
							<mask maskUnits="userSpaceOnUse" x="17" y="79.4" width="0" height="0" id="mask-25_2_">
								<g class="st31">
									<path id="path-24_2_" class="st32" d="M10.6,0C10.6,0,0,0,0,10.7V80h77.1c0,0,10.6,0,10.6-10.7V0H77.1"/>
								</g>
							</mask>
							<path id="Fill-31" class="st33" d="M17,79.4"/>
						</g>
					</g>
					<g id="Group-36">
						<defs>
							<filter id="Adobe_OpacityMaskFilter_13_" filterUnits="userSpaceOnUse" x="30.1" y="65.3" width="3.7" height="6">
								<feColorMatrix  type="matrix" values="1 0 0 0 0  0 1 0 0 0  0 0 1 0 0  0 0 0 1 0"/>
							</filter>
						</defs>
						<mask maskUnits="userSpaceOnUse" x="30.1" y="65.3" width="3.7" height="6" id="mask-27_2_">
							<g class="st34">
								<path id="path-26_2_" class="st2" d="M10.6,0C10.6,0,0,0,0,10.7V80h77.1c0,0,10.6,0,10.6-10.7V0H77.1"/>
							</g>
						</mask>
						<path id="Fill-34" class="st35" d="M31.8,69.9v-4.6h-1.7v6h3.7v-1.4"/>
					</g>
					<g id="Group-39">
						<defs>
							<filter id="Adobe_OpacityMaskFilter_14_" filterUnits="userSpaceOnUse" x="36.5" y="65.3" width="6.2" height="6.1">
								<feColorMatrix  type="matrix" values="1 0 0 0 0  0 1 0 0 0  0 0 1 0 0  0 0 0 1 0"/>
							</filter>
						</defs>
						<mask maskUnits="userSpaceOnUse" x="36.5" y="65.3" width="6.2" height="6.1" id="mask-29_2_">
							<g class="st36">
								<path id="path-28_2_" class="st2" d="M10.6,0C10.6,0,0,0,0,10.7V80h77.1c0,0,10.6,0,10.6-10.7V0H10.6z"/>
							</g>
						</mask>
						<path id="Fill-37" class="st37" d="M40.7,65.3h-2.1l-2.1,6.1h1.7l0.3-1.1h2.3l0.3,1.1h1.6L40.7,65.3z M38.8,69l0.6-2
							c0-0.1,0.1-0.3,0.1-0.4s0.1-0.3,0.1-0.4c0.1,0.2,0.1,0.4,0.1,0.5s0.1,0.2,0.1,0.3l0.6,2C40.4,69,38.8,69,38.8,69z"/>
					</g>
					<g id="Group-42">
						<defs>
							<filter id="Adobe_OpacityMaskFilter_15_" filterUnits="userSpaceOnUse" x="45.1" y="65.3" width="4.3" height="6.1">
								<feColorMatrix  type="matrix" values="1 0 0 0 0  0 1 0 0 0  0 0 1 0 0  0 0 0 1 0"/>
							</filter>
						</defs>
						<mask maskUnits="userSpaceOnUse" x="45.1" y="65.3" width="4.3" height="6.1" id="mask-31_2_">
							<g class="st38">
								<path id="path-30_2_" class="st2" d="M10.6,0C10.6,0,0,0,0,10.7V80h77.1c0,0,10.6,0,10.6-10.7V0H77.1"/>
							</g>
						</mask>
						<path id="Fill-40" class="st39" d="M49.4,65.3h-4.3v1.4h1.3v4.7h1.7v-4.7h1.3"/>
					</g>
					<g id="Group-45">
						<defs>
							<filter id="Adobe_OpacityMaskFilter_16_" filterUnits="userSpaceOnUse" x="52.8" y="65.3" width="5.4" height="6.1">
								<feColorMatrix  type="matrix" values="1 0 0 0 0  0 1 0 0 0  0 0 1 0 0  0 0 0 1 0"/>
							</filter>
						</defs>
						<mask maskUnits="userSpaceOnUse" x="52.8" y="65.3" width="5.4" height="6.1" id="mask-33_2_">
							<g class="st40">
								<path id="path-32_2_" class="st2" d="M10.6,0C10.6,0,0,0,0,10.7V80h77.1c0,0,10.6,0,10.6-10.7V0H77.1"/>
							</g>
						</mask>
						<path id="Fill-43" class="st41" d="M56.6,67.6h-2.2v-2.3h-1.6v6.1h1.6v-2.5h2.2v2.4l1.6,0.1v-6.1h-1.6"/>
					</g>
					<g id="Group-48">
						<defs>
							<filter id="Adobe_OpacityMaskFilter_17_" filterUnits="userSpaceOnUse" x="62.2" y="65.2" width="5.3" height="6.3">
								<feColorMatrix  type="matrix" values="1 0 0 0 0  0 1 0 0 0  0 0 1 0 0  0 0 0 1 0"/>
							</filter>
						</defs>
						<mask maskUnits="userSpaceOnUse" x="62.2" y="65.2" width="5.3" height="6.3" id="mask-35_2_">
							<g class="st42">
								<path id="path-34_2_" class="st2" d="M10.6,0C10.6,0,0,0,0,10.7V80h77.1c0,0,10.6,0,10.6-10.7V0H77.1"/>
							</g>
						</mask>
						<path id="Fill-46" class="st43" d="M65.8,67.8v1.3c0,0.2-0.1,0.4-0.1,0.5c-0.1,0.2-0.2,0.3-0.3,0.4c-0.2,0.1-0.3,0.1-0.6,0.1
							c-0.2,0-0.4,0-0.6-0.1s-0.3-0.2-0.3-0.4c-0.1-0.1-0.1-0.3-0.1-0.5v-3.9h-1.6v3.2c0,0.7,0,1.2,0.1,1.5s0.2,0.6,0.4,0.8
							c0.2,0.2,0.5,0.4,0.8,0.6c0.4,0.1,0.8,0.2,1.3,0.2s1-0.1,1.3-0.2c0.4-0.1,0.6-0.3,0.9-0.6c0.2-0.2,0.3-0.5,0.4-0.8
							s0.1-0.8,0.1-1.5v-3.2h-1.6"/>
					</g>
				</g>
				<defs>
					<filter id="Adobe_OpacityMaskFilter_18_" filterUnits="userSpaceOnUse" x="8.4" y="8.4" width="66.7" height="62.7">
						<feColorMatrix  type="matrix" values="1 0 0 0 0  0 1 0 0 0  0 0 1 0 0  0 0 0 1 0"/>
					</filter>
				</defs>
				<mask maskUnits="userSpaceOnUse" x="8.4" y="8.4" width="66.7" height="62.7" id="mask-2_6_">
					<g class="st44">
						<path id="path-1_7_" class="st2" d="M10.6,0C10.6,0,0,0,0,10.7V80h77.1c0,0,10.6,0,10.6-10.7V0H10.6z"/>
					</g>
				</mask>
				<g id="Group-56" class="st45">
					<g transform="translate(6 8)">
						<g id="Group-52">
							<defs>
								<filter id="Adobe_OpacityMaskFilter_19_" filterUnits="userSpaceOnUse" x="64.6" y="56.8" width="4.5" height="6.3">
									<feColorMatrix  type="matrix" values="1 0 0 0 0  0 1 0 0 0  0 0 1 0 0  0 0 0 1 0"/>
								</filter>
							</defs>
							<mask maskUnits="userSpaceOnUse" x="64.6" y="56.8" width="4.5" height="6.3" id="mask-37_2_">
								<g class="st46">
									<path id="path-36_2_" class="st2" d="M0.2,0.2v70.5h74.3c0.2,0,0.3-0.1,0.5-0.2V0.2"/>
								</g>
							</mask>
							<path id="Fill-50" class="st47" d="M68.6,59.8c-0.2-0.2-0.7-0.4-1.3-0.6h-0.1c-0.3-0.1-0.5-0.2-0.6-0.3s-0.2-0.2-0.2-0.4
								c0-0.1,0.1-0.3,0.2-0.4c0.1-0.1,0.3-0.1,0.5-0.1s0.4,0,0.6,0.1s0.4,0.2,0.6,0.4l0.5-1.2c-0.3-0.2-0.6-0.3-0.9-0.4
								c-0.3-0.1-0.6-0.1-1-0.1c-0.6,0-1.1,0.2-1.5,0.5c-0.4,0.4-0.6,0.8-0.6,1.4c0,0.4,0.1,0.8,0.4,1c0.2,0.3,0.7,0.5,1.3,0.6
								c0.4,0.1,0.7,0.2,0.8,0.3c0.1,0.1,0.2,0.3,0.2,0.5s-0.1,0.3-0.2,0.5c-0.1,0.1-0.3,0.2-0.5,0.2s-0.5-0.1-0.7-0.2
								c-0.2-0.1-0.5-0.4-0.7-0.6l-0.8,1.2c0.3,0.3,0.7,0.5,1,0.7c0.3,0.1,0.7,0.2,1.2,0.2c0.7,0,1.3-0.2,1.7-0.6
								c0.4-0.4,0.6-0.9,0.6-1.5c0-0.3,0-0.5-0.1-0.7C68.8,60.1,68.7,59.9,68.6,59.8"/>
						</g>
						<g id="Group-55">
							<defs>
								<filter id="Adobe_OpacityMaskFilter_20_" filterUnits="userSpaceOnUse" x="2.4" y="0.4" width="11.4" height="15.2">
									<feColorMatrix  type="matrix" values="1 0 0 0 0  0 1 0 0 0  0 0 1 0 0  0 0 0 1 0"/>
								</filter>
							</defs>
							<mask maskUnits="userSpaceOnUse" x="2.4" y="0.4" width="11.4" height="15.2" id="mask-39_2_">
								<g class="st48">
									<path id="path-38_2_" class="st2" d="M0.2,0.2v70.5h74.3c0.2,0,0.3-0.1,0.5-0.2V0.2"/>
								</g>
							</mask>
							<path id="Fill-53" class="st49" d="M13.7,6.4c-0.5-0.5-1-0.8-1.5-1s-1-0.3-1.6-0.3C9.8,5,9.1,5.3,8.6,5.8S7.8,7,7.8,7.9
								s0.2,1.5,0.7,2s1.2,0.8,2,0.8c0.5,0,1-0.1,1.5-0.3s1.1-0.5,1.7-1l-0.2,5.5c-0.6,0.2-1.2,0.4-1.7,0.5
								c-0.6,0.1-1.1,0.2-1.7,0.2c-0.7,0-1.4-0.1-2.1-0.3s-1.3-0.4-1.8-0.7C5,13.8,4,12.9,3.4,11.8c-0.7-1.1-1-2.4-1-3.9
								c0-1.1,0.2-2.1,0.6-3s0.9-1.7,1.7-2.4c0.7-0.7,1.6-1.2,2.5-1.6c1-0.4,2-0.5,3.1-0.5c0.6,0,1.2,0.1,1.8,0.2s1.1,0.3,1.7,0.6"
								/>
						</g>
					</g>
				</g>
				<defs>
					<filter id="Adobe_OpacityMaskFilter_21_" filterUnits="userSpaceOnUse" x="6.6" y="33.5" width="16.1" height="38.1">
						<feColorMatrix  type="matrix" values="1 0 0 0 0  0 1 0 0 0  0 0 1 0 0  0 0 0 1 0"/>
					</filter>
				</defs>
				<mask maskUnits="userSpaceOnUse" x="6.6" y="33.5" width="16.1" height="38.1" id="mask-2_8_">
					<g class="st50">
						<path id="path-1_9_" class="st2" d="M10.6,0C10.6,0,0,0,0,10.7V80h77.1c0,0,10.6,0,10.6-10.7V0H10.6z"/>
					</g>
				</mask>
				<g id="Group-63" class="st51">
					<g id="Group-59">
						<defs>
							<filter id="Adobe_OpacityMaskFilter_22_" filterUnits="userSpaceOnUse" x="9.1" y="33.5" width="12.7" height="14.7">
								<feColorMatrix  type="matrix" values="1 0 0 0 0  0 1 0 0 0  0 0 1 0 0  0 0 0 1 0"/>
							</filter>
						</defs>
						<mask maskUnits="userSpaceOnUse" x="9.1" y="33.5" width="12.7" height="14.7" id="mask-41_2_">
							<g class="st52">
								<path id="path-40_2_" class="st2" d="M10.6,0C10.6,0,0,0,0,10.7V80h77.1c0,0,10.6,0,10.6-10.7V0H10.6z"/>
							</g>
						</mask>
						<path id="Fill-57" class="st53" d="M9.1,48.2V33.5h6.4c2.2,0,3.8,0.4,4.8,1.3s1.5,2.2,1.5,4.1c0,1.7-0.5,3-1.4,3.8
							S18,43.9,16,43.9h-1.6v4.3C14.4,48.2,9.1,48.2,9.1,48.2z M14.4,37.4v3h0.9c0.5,0,1-0.1,1.2-0.4c0.3-0.3,0.4-0.6,0.4-1.1
							s-0.1-0.8-0.4-1.1s-0.7-0.4-1.2-0.4H14.4z"/>
					</g>
					<g id="Group-62" transform="translate(6 56)">
						<path id="Fill-60" class="st54" d="M0.6,15.6L5.9,0.9h5.8l5,14.7h-5.6l-0.4-1.8h-4l-0.4,1.8C6.3,15.6,0.6,15.6,0.6,15.6z
							 M7.3,10.4h2.8L9.5,8.7C9.2,7.9,9.1,7.3,9,6.8S8.8,5.9,8.8,5.5H8.7c0,0.4-0.1,0.8-0.2,1.3C8.2,8,8.4,7.3,7.9,8.7
							C7.9,8.7,7.3,10.4,7.3,10.4z"/>
					</g>
				</g>
			</g>
		</g>
	</g>
</g>
</svg>
