<?xml version="1.0" encoding="utf-8"?>
<!-- Designed by Vexels.com - 2021 All Rights Reserved - https://vexels.com/terms-and-conditions/  -->
<svg version="1.1" id="Capa_1" xmlns="http://www.w3.org/2000/svg" xmlns:xlink="http://www.w3.org/1999/xlink" x="0px" y="0px"
	 viewBox="0 0 1200 1200" enable-background="new 0 0 1200 1200" xml:space="preserve">
<path fill="#ffffff" d="M975.009,1023.398c-3.467-10.873-11.002-19.53-19.901-26.414c-23.534-18.205-53.274-23.631-82.266-24.931
	c-39.627-1.777-77.694,3.405-116.708,9.409c-2.028,0.312-4.065,0.585-6.1,0.864c-8.436-11.83-18.525-22.48-25.121-35.32
	c-0.429-12.149,4.16-25.467,6.905-37.076c3.175-13.424,6.492-26.839,8.496-40.501c1.96-13.358,1.818-26.965,4.179-40.267
	c2.097-11.814,5.889-23.066,6.071-35.168c0.202-13.402-2.298-26.715-2.501-40.116c-0.163-10.711-0.268-21.444,0.143-32.151
	c1.135-0.151,2.263-0.335,3.373-0.601c1.309,0.039,2.619,0.077,3.976,0.031c1.741-0.058,3.134-1.407,3.172-3.172
	c0.579-27.256,7.696-53.363,5.34-80.735c-1.944-22.586-13.5-41.788-12.771-64.734c0.649-20.419-0.284-40.035-8.529-59.02
	c-8.333-19.187-21.197-37.085-25.518-57.591c1.119-7.737,1.521-15.554,0.729-23.452c-1.657-16.509-5.971-32.452-6.027-49.185
	c-0.052-15.72,4.101-30.506,6.195-45.934c1.654-12.185-0.292-23.608-2.327-35.254c0.026-3.228-0.41-7.022,0.718-10.033
	c-0.272-4.591,2.543-6.545,8.444-5.862c4.389-3.823,8.135-3.842,11.238-0.057c5.93,2.98,11.347,8.172,16.956,11.819
	c12.551,8.164,25.627,15.55,39.314,21.643c15.677,6.98,42.182,14.606,50.42-7.69c2.949-7.981-1.707-14.602-6.027-20.996
	c-7.354-10.883-13.153-22.823-21.08-33.318c-10.836-14.345-26.656-22.873-42.431-31.31c-3.549-8.179,2.723-16.07-2.098-24.567
	c-2.083-3.671-5.778-5.119-9.019-7.502c-3.232-2.376-6.37-5.408-9.281-8.209c-0.762-0.733-2.534-0.787-3.013-1.301
	c-2.464-2.639,0.129-3.3-4.191-5.285c-3.121-1.434-6.816-1.139-9.955-0.049c-5.93,2.06-10.863,6.991-14.113,12.534
	c-3.808-0.539-7.581-0.205-10.39,2.015c-4.869,3.848-4.764,12.571-4.155,18.874c-7.168-4.93-15.116-7.129-26.661-8.799
	c-9.061-1.311-24.204,0.318-31.406-6.223c-4.473-4.063-6.233-9.762-6.897-15.786c2.447-3.261,4.502-6.771,5.78-10.451
	c2.507-7.22,2.096-14.919,0.8-22.442c2.292-0.89,3.943-2.637,4.471-5.617c1.063-5.993,0.206-12.722-0.52-19.021
	c0.157-0.603,0.327-1.201,0.466-1.811c0.788-3.46,3.485-6.122,3.751-9.672c0.863,0.275,1.896-0.848,1.392-1.804
	c-5.441-10.344-2.36-24.11-9.419-33.344c-3.933-5.144-10.098-7.527-15.261-11.221c-0.709-6.511-4.135-12.46-11.362-16.187
	c-2.292-1.182-4.499,0.327-4.769,2.736c-1.416,12.657-8.895,3.349-13.035,4.841c-1.771,0.638-4.091,1.517-6.298,2.333
	c-0.279-1.73-2.337-2.826-3.961-2.397c-14.249,3.759-26.851,11.24-34.184,24.443c-8.721,15.701-5.711,30.686-1.101,46.949
	c-0.971,5.76-0.722,12.042,1.492,17.077c2.072,4.714,5.62,6.206,9.333,5.697c0.094,5.901,1.316,11.731,3.812,17.321
	c1.335,2.99,2.866,5.28,4.613,7.115c0.246,1.873,0.535,3.755,0.819,5.657c1.336,8.947,0.615,15.686-1.73,22.765
	c-20.185,22.426-49.904,36.133-66.883,61.948c-7.462,11.345-12.131,25.934-12.466,39.511c-0.24,9.736,2.069,19.145,4.883,28.44
	c-0.888,10.527-2.612,20.952-2.327,31.712c0.261,9.879,2.424,19.689,5.389,29.205c-2.587,15.87-4.988,31.11-0.373,47.767
	c6.85,24.726,4.67,51.289,13.027,75.658c0.459,3.03,1.125,5.958,2.118,8.599c1.795,4.772,5.788,8.097,7.033,13.162
	c1.045,4.251,0.356,9.139,0.335,13.452c-0.031,6.319,0.73,12.462,3.29,17.21c-3.255,13.486-7.955,26.069-12.752,39.816
	c-0.299,0.856-0.534,1.694-0.808,2.542L371.718,898.275c-0.481-0.032-0.957-0.065-1.455-0.092c-0.944-0.053-2.116,0.578-2.527,1.449
	c-10.325,21.909-18.173,40.602-35.699,58.038c-15.562,15.482-32.091,30.013-47.782,45.382
	c-27.275,26.715-57.331,62.677-62.488,101.913c-0.047,0.359,0.121,0.614,0.367,0.775c5.473,11.546,12.572,19.957,21.613,25.257
	c16.745,13.753,40.19,21.754,59.619,18.136c12.468-2.321,15.71-12.092,19.381-23.112c1.456-4.37,2.688-8.796,3.834-13.243
	c0.54-1,1.075-2.006,1.553-3.084c6.194-13.974,10.675-29.039,14.31-43.872c4.517-18.431,3.242-37.732,8.324-56.052
	c2.376-8.565,5.926-16.718,7.919-25.399c1.862-8.113,3.13-16.179,6.017-24.028c6.89-18.73,16.613-36.361,23.632-55.081
	c0.432-1.152-0.273-2.818-1.369-3.363c-0.06-0.03-0.118-0.052-0.178-0.081c10.223-20.031,77.449-148.795,128.133-245.808
	c-1.385,15.596-1.443,31.311-1.275,47.042c0.123,11.464,5.383,15.501,12.879,17.565c-2.018,8.262-4.105,16.473-7.482,24.473
	c-4.751,11.255-9.748,22.4-12.888,34.246c-6.549,24.706-7.885,51.152-7.972,76.586c-0.089,26.133,1.303,52.378-1.655,78.413
	c-0.36,3.169-0.836,6.299-1.343,9.412c-4.526,7.352-5.712,15.861-3.978,24.208c1.206,5.803-0.787,8.877-3.123,12.529
	c-14.567-0.561-30.297,3.052-43.535,3.379c-25.765,0.637-49.312,3.962-69.681,21.725c-13.893,12.116,0.353,23.463,13.48,27.661
	c12.28,3.927,25.19,6.496,37.921,8.399c11.837,1.769,24.068,1.266,35.698,3.986c14.352,7.602,31.605,10.709,47.925,12.755
	c40.811,5.115,83.046,1.955,123.926-0.626c83.95-5.3,168.746-7.207,252.808-3.892c19.106,0.753,38.18,1.369,57.302,0.94
	c8.15-0.182,25.655,4.052,31.359-3.288C980.764,1044.474,977.392,1030.87,975.009,1023.398z M550.824,394.859
	c3.12,8.108,7.556,17.761,5.816,24.027c-0.986,3.55-6.18,7.52-8.289,10.82c-0.111,0.174-0.199,0.365-0.307,0.542
	c-0.833-4.932-1.686-9.82-1.7-14.808C546.325,408.797,548.592,401.813,550.824,394.859z M691.704,959.235
	c-0.928,8.157-5.007,15.005-6.142,22.771c-2.014,3.286-2.683,7.346-2.447,11.504c-20.9,0.83-42.373-1.367-63.186-2.307
	c-21.389-0.967-42.108-6.075-63.388-7.779c-5.913-0.474-12.763-1.005-19.709-0.994c-1.948-2.446-4.086-4.71-5.643-7.535
	c-0.036-0.066-0.059-0.136-0.095-0.203c1.987-7.776,4.472-15.326,3.328-23.571c-1.932-13.929-2.844-24.314,0.966-38.231
	c7.311-26.706,21.263-51.627,26.327-78.93c1.997-10.77,2.371-21.602,3.087-32.502c1.017-15.489,6.684-28.005,14.769-41.063
	c4.941-7.981,7.749-16.225,9.144-24.674c4.432-1.029,8.854-2.227,13.265-2.95c1.347-0.221,2.122-1.673,2.203-2.894
	c1.201-18.036,4.475-36.21,6.069-54.305c1.676-19.023,2.466-36.502,12.023-53.347c5.701-10.048,9.136-20.683,11.138-31.618
	c2.061,11.43,3.461,23.126,6.784,34.099c4.224,13.952,5.062,26.7,5.178,41.185c0.102,12.721,3.062,23.301,5.941,35.545
	c2.782,11.833-1.737,34.512,16.688,33.551c1.534-0.08,3.086-0.318,4.64-0.673c3.517,0.078,7.093-0.269,10.656-0.909
	c1.888,11.932,4.941,23.721,7.427,35.584c-1.917,17.121-5.176,34.109-5.74,51.44c-0.768,23.611,1.757,46.125,4.459,69.52
	c1.368,11.847,1.842,23.54,1.827,35.46C691.259,936.421,692.949,948.28,691.704,959.235z"/>
</svg>
