<?xml version="1.0" encoding="utf-8"?>
<!-- Svg Vector Icons : http://www.onlinewebfonts.com/icon -->
<!DOCTYPE svg PUBLIC "-//W3C//DTD SVG 1.1//EN" "http://www.w3.org/Graphics/SVG/1.1/DTD/svg11.dtd">
<svg version="1.1" xmlns="http://www.w3.org/2000/svg" xmlns:xlink="http://www.w3.org/1999/xlink" x="0px" y="0px" viewBox="0 0 1000 1000" enable-background="new 0 0 1000 1000" xml:space="preserve" fill="#ffffff">
<metadata> Svg Vector Icons : http://www.onlinewebfonts.com/icon </metadata>
<g><g transform="translate(0.000000,512.000000) scale(0.100000,-0.100000)"><path d="M1019.6,4996c-84.3-46-95.8-92-101.5-450.2l-3.8-335.3l-335.3-3.8c-216.5-3.8-350.6-13.4-379.4-28.7c-57.5-30.6-99.6-111.1-99.6-191.6c0-55.6,47.9-109.2,446.4-509.6c243.3-245.2,467.5-459.8,496.2-475.2c40.2-21.1,139.9-26.8,431.1-26.8h379.4l1247.3-1247.3L4349.5,478.3L4294,359.5c-281.6-599.7,36.4-1272.2,682.1-1436.9c333.4-84.3,691.6,19.2,948.4,277.8c616.9,615,241.4,1645.8-632.3,1733.9c-153.3,15.3-360.2-24.9-526.9-103.5l-118.8-55.6L3399.2,2024.4L2152,3271.7l-5.8,408.1l-5.7,406.2l-469.4,469.4c-434.9,434.9-475.1,469.4-536.5,469.4C1098.2,5022.9,1046.5,5011.4,1019.6,4996z M1728.5,3660.6v-264.4h-264.4h-262.5l-201.2,201.2l-201.2,201.2h199.3h197.3l65.1,65.1l65.1,65.1v197.3v199.3l201.2-201.2l201.2-201.2V3660.6z M5434,482.1c136-49.8,266.3-176.3,331.5-318c182-398.5-118.8-858.3-561.4-856.4c-343,1.9-603.5,270.2-599.7,616.9c0,70.9,11.5,157.1,23,191.6l23,61.3l201.2-203.1c111.1-111.1,224.2-214.6,252.9-229.9c189.7-99.6,375.5,86.2,275.9,275.9c-15.3,28.7-118.8,141.8-229.9,252.9l-203.1,201.2l61.3,23C5112.1,533.8,5315.2,528.1,5434,482.1z"/><path d="M4640.8,4170.3c-576.7-78.6-1197.5-300.8-1682.2-601.6c-122.6-76.6-166.7-116.9-187.8-166.7c-55.6-128.4,42.2-274,180.1-274c47.9,0,118.8,30.7,241.4,103.5c599.7,354.4,1186,532.6,1860.4,561.4C6321,3846.5,7551.1,3260.2,8313.6,2239c509.6-682.1,772.1-1471.4,772.1-2320.2c0-862.2-268.2-1663-789.4-2352.8c-151.3-201.2-536.5-586.3-737.6-737.6c-1519.3-1147.6-3624.9-1036.5-5012.1,264.4c-559.5,523-979,1272.2-1134.2,2025.2c-203.1,977.1-38.3,1937,480.9,2814.5c72.8,122.6,103.5,193.5,103.5,241.4c0,137.9-145.6,235.7-274,180.1c-174.4-70.9-549.9-867.9-689.7-1458c-141.8-597.8-145.6-1306.7-11.5-1914c95.8-433,321.9-980.9,563.3-1360.3l107.3-170.5l-569-950.3c-314.2-523-582.4-975.2-597.8-1005.9c-57.5-113,51.7-279.7,183.9-279.7c116.9,0,137.9,28.7,705.1,973.3l549.9,917.7l155.2-162.9c574.8-599.7,1373.7-1046.1,2178.4-1218.5c341-72.8,553.7-93.9,927.3-93.9c492.4,1.9,867.9,61.3,1331.6,216.5c647.6,214.6,1147.6,521.1,1653.4,1013.5c134.1,130.3,247.2,233.7,251,229.9c3.8-3.8,254.8-417.7,555.6-919.6c590.1-984.8,582.4-975.2,726.1-948.4c95.8,17.2,155.2,92,157.1,189.7c0,72.8-63.2,185.9-590.1,1063.3c-530.7,883.3-588.2,986.7-563.3,1015.4c55.6,65.2,272.1,440.7,354.5,616.9c168.6,364,300.8,825.8,369.8,1293.3c28.7,203.1,28.7,797,0,1025c-132.2,1007.8-593.9,1919.8-1316.2,2603.7c-662.9,626.5-1494.4,1021.2-2410.3,1141.9C5466.5,4208.6,4916.7,4206.7,4640.8,4170.3z"/><path d="M4928.2,2560.9c-251-30.7-576.7-120.7-795.1-218.4c-86.2-38.3-130.3-70.9-151.4-113c-44.1-84.3-38.3-162.9,19.2-229.9c76.6-90,143.7-93.9,344.9-11.5c693.6,279.7,1427.4,220.3,2053.9-166.7c203.1-124.5,555.6-467.5,678.2-657.2c592-917.7,477.1-2075-283.6-2833.7c-758.7-760.6-1915.9-875.6-2833.7-283.6c-189.7,122.6-532.6,475.1-657.2,678.2C2916.4-648.3,2857,87.4,3136.8,781c80.5,199.3,78.6,268.2-11.5,342.9c-67.1,57.5-145.6,63.2-229.9,19.2c-90-46-218.4-362.1-298.9-737.6c-46-222.3-46-743.4,0-981c212.7-1063.3,1019.3-1881.4,2086.5-2115.2c224.2-47.9,821.9-47.9,1044.2,0c1067.2,229.9,1858.5,1021.2,2088.4,2088.4C7842.3-483.5,7850-359,7850-81.2c0,396.6-21.1,538.4-124.5,844.9C7422.7,1658.5,6641,2342.5,5711.8,2524.5C5556.6,2555.2,5066.1,2578.1,4928.2,2560.9z"/></g></g>
</svg>